<svg xmlns="http://www.w3.org/2000/svg" viewBox="0 0 22.96 14.28"><defs><style>.cls-1{fill:#e5e5e5;}</style></defs><title>Mesa de trabajo 84</title><g id="Capa_1" data-name="Capa 1"><path id="Behance" class="cls-1" d="M20.73,2H15V.59h5.75V2ZM11.15,7.88A3.77,3.77,0,0,1,11.71,10a4.13,4.13,0,0,1-.64,2.28,3.75,3.75,0,0,1-1,1.12,3.88,3.88,0,0,1-1.61.72,9.83,9.83,0,0,1-2,.19H0V0H6.9a4.39,4.39,0,0,1,3.7,1.52,3.7,3.7,0,0,1,.65,2.18,3.21,3.21,0,0,1-.66,2.11,3.51,3.51,0,0,1-1.09.81A3.12,3.12,0,0,1,11.15,7.88ZM3.29,5.63h3a2.93,2.93,0,0,0,1.51-.35A1.38,1.38,0,0,0,8.41,4,1.3,1.3,0,0,0,7.64,2.7,5.63,5.63,0,0,0,6,2.48H3.29ZM8.7,9.77a1.54,1.54,0,0,0-.91-1.53A3.45,3.45,0,0,0,6.36,8H3.29v3.8h3a3.37,3.37,0,0,0,1.45-.25A1.8,1.8,0,0,0,8.7,9.77ZM22.87,7.44a14.09,14.09,0,0,1,.08,2H15.5a2.44,2.44,0,0,0,1.07,2.15,2.7,2.7,0,0,0,1.48.39,2.08,2.08,0,0,0,2-1.17h2.73a3.36,3.36,0,0,1-1,1.85A5,5,0,0,1,18,14.19a5.57,5.57,0,0,1-3.6-1.26,5,5,0,0,1-1.56-4.1,5.56,5.56,0,0,1,1.41-4.08,5,5,0,0,1,3.66-1.42,5.78,5.78,0,0,1,2.4.48,4.11,4.11,0,0,1,1.77,1.52A5.1,5.1,0,0,1,22.87,7.44Zm-2.69.27a2.24,2.24,0,0,0-.72-1.62,2.35,2.35,0,0,0-1.58-.55,2.13,2.13,0,0,0-1.6.59,2.7,2.7,0,0,0-.71,1.58Z"/></g></svg>