<svg xmlns="http://www.w3.org/2000/svg" viewBox="0 0 14.5 14.48"><defs><style>.cls-1{fill:#e5e5e5;fill-rule:evenodd;}</style></defs><title>Mesa de trabajo 86</title><g id="Capa_1" data-name="Capa 1"><path class="cls-1" d="M7.25,14.48A7.24,7.24,0,1,1,14.5,7.24a7.25,7.25,0,0,1-7.25,7.24Zm6.12-6.25A9.27,9.27,0,0,0,9.51,8a26,26,0,0,1,1.2,4.41,6.23,6.23,0,0,0,2.66-4.15ZM9.67,13a25.35,25.35,0,0,0-1.32-4.7l0,0a8.47,8.47,0,0,0-4.86,3.86,6.16,6.16,0,0,0,3.8,1.31A6.26,6.26,0,0,0,9.67,13Zm-7-1.56a9.82,9.82,0,0,1,5-4.08l.25-.08c-.16-.35-.33-.7-.5-1.05a22.51,22.51,0,0,1-6.37.88v.19a6.17,6.17,0,0,0,1.59,4.14ZM1.19,6a22.54,22.54,0,0,0,5.72-.75A40.92,40.92,0,0,0,4.62,1.65,6.22,6.22,0,0,0,1.19,6ZM5.8,1.24A32.77,32.77,0,0,1,8.11,4.86a7,7,0,0,0,3.25-2.24A6.22,6.22,0,0,0,7.25,1.07a6.32,6.32,0,0,0-1.45.17Zm6.25,2.1A8.28,8.28,0,0,1,8.59,5.78c.14.29.28.59.41.89,0,.11.09.22.13.32a14.52,14.52,0,0,1,4.31.2,6.12,6.12,0,0,0-1.39-3.85Z"/></g></svg>