<svg xmlns="http://www.w3.org/2000/svg" viewBox="0 0 14.93 14.93"><defs><style>.cls-1{fill:#e5e5e5;}</style></defs><title>Mesa de trabajo 85</title><g id="Capa_1" data-name="Capa 1"><path class="cls-1" d="M7.46,1.34c2,0,2.23,0,3,0a3.78,3.78,0,0,1,1.38.26,2.23,2.23,0,0,1,.86.55,2.25,2.25,0,0,1,.56.86,4.35,4.35,0,0,1,.26,1.39c0,.78,0,1,0,3s0,2.23,0,3a4.27,4.27,0,0,1-.26,1.38,2.48,2.48,0,0,1-1.42,1.42,4.27,4.27,0,0,1-1.38.26c-.79,0-1,0-3,0s-2.23,0-3,0a4.35,4.35,0,0,1-1.39-.26,2.25,2.25,0,0,1-.86-.56,2.23,2.23,0,0,1-.55-.86,3.78,3.78,0,0,1-.26-1.38c0-.79,0-1,0-3s0-2.23,0-3a3.85,3.85,0,0,1,.26-1.39A2.23,2.23,0,0,1,2.2,2.2a2.23,2.23,0,0,1,.86-.55,3.85,3.85,0,0,1,1.39-.26c.78,0,1,0,3,0M7.46,0c-2,0-2.28,0-3.07,0A5.74,5.74,0,0,0,2.57.39,3.82,3.82,0,0,0,.39,2.57,5.74,5.74,0,0,0,0,4.39c0,.79,0,1.05,0,3.07s0,2.28,0,3.08a5.68,5.68,0,0,0,.35,1.81,3.67,3.67,0,0,0,.86,1.32,3.62,3.62,0,0,0,1.32.86,5.48,5.48,0,0,0,1.82.35c.79,0,1.05,0,3.07,0s2.28,0,3.08,0a5.41,5.41,0,0,0,1.81-.35,3.82,3.82,0,0,0,2.18-2.18,5.41,5.41,0,0,0,.35-1.81c0-.8,0-1,0-3.08s0-2.28,0-3.07a5.48,5.48,0,0,0-.35-1.82,3.62,3.62,0,0,0-.86-1.32A3.67,3.67,0,0,0,12.35.39,5.68,5.68,0,0,0,10.54,0c-.8,0-1,0-3.08,0Z"/><path class="cls-1" d="M7.46,3.63A3.84,3.84,0,1,0,11.3,7.46,3.84,3.84,0,0,0,7.46,3.63Zm0,6.32A2.49,2.49,0,1,1,10,7.46,2.48,2.48,0,0,1,7.46,10Z"/><circle class="cls-1" cx="11.45" cy="3.48" r="0.9"/></g></svg>