<svg xmlns="http://www.w3.org/2000/svg" viewBox="0 0 256.29 256.3"><defs><style>.cls-1{fill:none;stroke:#e5e5e5;stroke-miterlimit:10;stroke-width:0.75px;}</style></defs><title>mad</title><g id="Capa_1" data-name="Capa 1"><path class="cls-1" d="M126.87,12.74l2.06,1.95,2.95-2.19L135.1,15,138,12.75l3.32,3-.48,11.72-3.57,2.68.53-12.72L135.13,15l-.51,12.21-3.56,2.68.52-12.72-2.66-2.42L128.42,27l-3.57,2.69.51-12.27-2.06-1.89Z"/><path class="cls-1" d="M145.29,18.86l3.85-2.1L152.32,15l2.84,3.32-2.11,10.35,1.53,2-2.91,1.84-2.26-2.86-3.15,1.79-2.81-3.5Zm4.08,10.58,2-9.83-2.15-2.73-2,9.84Z"/><path class="cls-1" d="M168.84,22.77l-3.14,9.28L159,34.66l-.5-.79-2.35-3.82,2.75-8.14,4.2-1.64-2.69-4.41,3.44-1.35Zm-3.85.62-1.9-3.12L160,29.42l1.9,3.09Z"/><path class="cls-1" d="M183.1,21.48l4.43-.81-9.71,17.1,1.29,3.39,5-8.88-1.27-3.42,3.59-.66,1.58,4.19-4.53,8-8,1.49h0l-1.59-4.2Z"/><path class="cls-1" d="M194.46,33.38,195,36l-6.39,8.53.79,3.39,7.21-9.64,4.5-.25-8,10.74.54,2.44-3.41.41-.83-3.55-3.61.27-1-4.36,6.37-8.5-.44-1.89Z"/><path class="cls-1" d="M204.6,42.19l4.5.22L207.6,44l2.68,2.49-4.77-.19,0,0-6.41,6.91.43,3.59-3.66-.1-.59-4.45L203,44l-2.16-2Z"/><path class="cls-1" d="M213.48,57.35l4,.88,3.4.69-.14,4.9L217.12,63l.16-4.26-7.19,5.54-.16,3.92,2.54.52-.08.75L209.88,69l-3.6-.71.2-5.51Z"/><path class="cls-1" d="M228.36,62.11l4.24,1.47L214.05,74.79l-4.2-1.49ZM228,69.63l-.22,4.17-10.48,6.34-4.21-1.49L224,72.06l.57-3.61Z"/><path class="cls-1" d="M232.71,78.32l-.7,2.62-10.26,4.87-.62,2.39-3.76-1.73.7-2.62,10-4.86.64-2.51Zm6.17-2.85-.94,3.81-3.72-1.64,1-3.85Z"/><path class="cls-1" d="M239.26,82.78l4,2.17-18.65,7.23-1,3-3.25-1.7.29-.89.78-2.85Z"/><path class="cls-1" d="M242.21,90.81,246,93.26l-19.13,5.88-1.24,2.9-3.11-1.93.34-.86,1-2.79Z"/><path class="cls-1" d="M234,108.88a2.06,2.06,0,0,1,2.47,1.7,2.17,2.17,0,1,1-2.47-1.7Z"/><path class="cls-1" d="M243.55,126.49l-2,2.06,2.2,2.95-2.47,3.22,2.24,2.88-3,3.34-11.72-.45-2.69-3.56,12.72.49,2.41-2.66-12.2-.47-2.69-3.56,12.72.49,2.41-2.67-12.23-.47-2.7-3.56,12.27.48,1.88-2.07Z"/><path class="cls-1" d="M237.49,144.92l2.12,3.84,1.79,3.17-3.32,2.86-10.35-2.08-2,1.54-1.85-2.9,2.85-2.28-1.8-3.14,3.49-2.82ZM226.92,149l9.85,2,2.72-2.16-9.85-2Z"/><path class="cls-1" d="M233.67,168.48l-9.3-3.1-2.63-6.7.79-.51,3.81-2.36,8.14,2.72,1.66,4.2,4.4-2.72,1.36,3.44Zm-.64-3.85,3.11-1.9L227,159.66l-3.08,1.92Z"/><path class="cls-1" d="M235,182.74l.83,4.43-17.13-9.65-3.39,1.3,8.9,5,3.41-1.28.68,3.59-4.19,1.6-8-4.5-1.52-8,0,0,4.18-1.6Z"/><path class="cls-1" d="M223.13,194.15l-2.63.58L212,188.37l-3.38.79,9.66,7.19.26,4.49-10.76-8-2.44.55-.42-3.41,3.55-.84-.29-3.61,4.36-1.06,8.52,6.34,1.88-.45Z"/><path class="cls-1" d="M214.36,204.3l-.2,4.5-1.62-1.5L210.06,210l.17-4.76,0,0-6.92-6.38-3.6.45.09-3.67,4.45-.6,8.32,7.66,2-2.15Z"/><path class="cls-1" d="M199.26,213.22l-.87,4-.68,3.4-4.9-.12.78-3.62,4.26.14-5.57-7.16-3.91-.15-.52,2.54-.75-.07.54-2.52.7-3.6,5.51.18Z"/><path class="cls-1" d="M187,227.8l-4.16-.21-6.37-10.46,1.47-4.21,6.62,10.87,3.61.55Zm7.53.34-1.46,4.24-11.27-18.5,1.48-4.21Z"/><path class="cls-1" d="M178.35,232.53l-2.63-.69-4.9-10.24-2.4-.61,1.72-3.76,2.63.69,4.89,10,2.51.63Zm2.87,6.16-3.81-.93L179,234l3.86,1Z"/><path class="cls-1" d="M173.9,239.12l-2.16,3.95-7.3-18.63-3-1,1.69-3.26.89.29,2.85.77Z"/><path class="cls-1" d="M165.87,242.1l-2.44,3.79-5.94-19.11-2.91-1.23,1.92-3.12.87.34,2.79,1Z"/><path class="cls-1" d="M147.76,233.91a2.06,2.06,0,0,1-1.69,2.48,2.17,2.17,0,1,1,1.69-2.48Z"/><path class="cls-1" d="M130.22,243.55l-2.07-1.93-3,2.21L122,241.37l-2.87,2.24-3.35-3,.41-11.72,3.55-2.71-.45,12.72,2.68,2.41.43-12.21,3.54-2.7-.44,12.72,2.68,2.41.43-12.24,3.54-2.71-.43,12.27,2.08,1.87Z"/><path class="cls-1" d="M111.76,237.56l-3.83,2.13-3.17,1.81-2.87-3.31,2-10.36-1.55-2,2.89-1.86,2.29,2.85,3.14-1.81,2.83,3.47ZM107.61,227l-1.94,9.86,2.17,2.71,1.94-9.85Z"/><path class="cls-1" d="M88.17,233.81l3.07-9.3,6.7-2.66.5.79,2.38,3.8-2.7,8.16-4.19,1.67,2.73,4.39L93.23,242Zm3.85-.65,1.91,3.11,3-9.18L95,224Z"/><path class="cls-1" d="M73.91,235.19l-4.43.85,9.59-17.17-1.31-3.38-5,8.92,1.3,3.41-3.59.68-1.61-4.18,4.47-8,8-1.55h0L83,219Z"/><path class="cls-1" d="M62.5,223.39l-.6-2.63,6.34-8.57-.81-3.39-7.15,9.69-4.5.28,8-10.79-.56-2.44,3.41-.44.86,3.55,3.6-.29,1.08,4.35-6.31,8.55.45,1.88Z"/><path class="cls-1" d="M52.28,214.64l-4.51-.19,1.49-1.63-2.7-2.47,4.77.15,0,0,6.36-7L57.26,200l3.67.08.61,4.44-7.63,8.35,2.16,2Z"/><path class="cls-1" d="M43.31,199.56l-4-.86-3.4-.67.11-4.9,3.61.77-.13,4.26,7.15-5.59.14-3.91-2.55-.51.07-.76,2.52.53,3.6.69-.16,5.51Z"/><path class="cls-1" d="M28.38,194.88l-4.24-1.44L42.6,182.11l4.22,1.46Zm.32-7.52.2-4.17,10.44-6.41,4.21,1.46L32.7,184.9l-.53,3.61Z"/><path class="cls-1" d="M17.78,181.6l.91-3.81,3.73,1.61-.93,3.86Zm6.15-2.89.68-2.63,10.22-4.93.61-2.4,3.77,1.7-.69,2.63-10,4.92-.63,2.53Z"/><path class="cls-1" d="M17.33,174.28l-4-2.14L32,164.78l1-3,3.26,1.68-.28.89-.76,2.86Z"/><path class="cls-1" d="M14.34,166.29l-3.8-2.42,19.08-6L30.83,155,34,156.86l-.35.86-1,2.8Z"/><path class="cls-1" d="M22.44,148.12A2.05,2.05,0,0,1,20,146.44a2,2,0,0,1,1.8-2.37,2,2,0,0,1,2.49,1.68A2,2,0,0,1,22.44,148.12Z"/><path class="cls-1" d="M12.75,130.62l1.92-2.08-2.21-2.93,2.44-3.24-2.25-2.86,3-3.36,11.72.36,2.72,3.54-12.72-.4-2.4,2.69,12.21.38,2.72,3.54-12.73-.4-2.4,2.69,12.25.38,2.72,3.54-12.28-.39-1.86,2.08Z"/><path class="cls-1" d="M18.68,112.15l-2.15-3.82-1.81-3.16L18,102.29l10.37,2,1.95-1.56,1.87,2.89-2.84,2.3,1.82,3.13-3.46,2.84ZM29.21,108l-9.85-1.9-2.71,2.19,9.86,1.9Z"/><path class="cls-1" d="M22.34,88.55l9.31,3,2.68,6.68-.78.51-3.79,2.39L21.59,98.5l-1.68-4.18-4.38,2.75-1.39-3.43ZM23,92.4l-3.09,1.92,9.18,3,3.06-1.94Z"/><path class="cls-1" d="M20.91,74.28l-.86-4.42,17.2,9.53,3.38-1.32-8.94-4.95-3.4,1.3-.7-3.58,4.18-1.63,8,4.45,1.57,8v0L37.18,83.3Z"/><path class="cls-1" d="M32.68,62.83l2.62-.6,8.6,6.3,3.38-.82L37.57,60.6l-.3-4.5L48.09,64l2.43-.57L51,66.87l-3.55.87.31,3.6-4.35,1.09-8.57-6.27-1.88.46Z"/><path class="cls-1" d="M41.4,52.58l.17-4.5,1.64,1.48,2.46-2.7-.14,4.77,0,0,7,6.33,3.59-.46L56,61.18l-4.44.63-8.37-7.6-2,2.17Z"/><path class="cls-1" d="M56.45,43.56l.84-4L58,36.15l4.9.09-.75,3.62-4.26-.11,5.61,7.13,3.91.12.5-2.54.76.06L68.1,47l-.68,3.6-5.51-.14Z"/><path class="cls-1" d="M61.05,28.64l1.42-4.25L73.88,42.81,72.43,47Zm7.52.29,4.17.18,6.45,10.41-1.45,4.22L71,32.92l-3.61-.52Z"/><path class="cls-1" d="M74.31,18l3.82.9-1.6,3.73-3.86-.92Zm2.91,6.14,2.64.67,5,10.21,2.4.59-1.69,3.78-2.64-.67-5-9.95-2.53-.61Z"/><path class="cls-1" d="M81.63,17.5l2.13-4,7.42,18.59,3,1-1.67,3.27-.89-.28-2.86-.75Z"/><path class="cls-1" d="M89.6,14.48,92,10.67l6.08,19.06L101,30.94l-1.9,3.14-.87-.34-2.8-1Z"/><path class="cls-1" d="M107.8,22.53a2.07,2.07,0,0,1,1.67-2.5,2,2,0,0,1,2.37,1.8,2,2,0,0,1-1.67,2.49A2,2,0,0,1,107.8,22.53Z"/></g></svg>