<?xml version="1.0" encoding="utf-8"?>
<!-- Generator: Adobe Illustrator 22.0.1, SVG Export Plug-In . SVG Version: 6.00 Build 0)  -->
<svg version="1.1" id="Capa_1" xmlns="http://www.w3.org/2000/svg" xmlns:xlink="http://www.w3.org/1999/xlink" x="0px" y="0px"
	 viewBox="0 0 256.3 256.3" style="enable-background:new 0 0 256.3 256.3;" xml:space="preserve">
<style type="text/css">
	.st0{fill:none;stroke:#E5E5E5;stroke-width:0.25;stroke-miterlimit:10;}
</style>
<title>mad</title>
<g id="Capa_1_1_">
	<path class="st0" d="M126.9,12.7l2.1,1.9l2.9-2.2l3.2,2.5l2.9-2.2l3.3,3l-0.5,11.7l-3.6,2.7l0.5-12.7l-2.7-2.4l-0.5,12.2l-3.6,2.7
		l0.5-12.7l-2.7-2.4L128.4,27l-3.6,2.7l0.5-12.3l-2.1-1.9L126.9,12.7z"/>
	<path class="st0" d="M145.3,18.9l3.9-2.1l3.2-1.8l2.8,3.3l-2.1,10.4l1.5,2l-2.9,1.8l-2.3-2.9l-3.1,1.8l-2.8-3.5L145.3,18.9z
		 M149.4,29.4l2-9.8l-2.1-2.7l-2,9.8L149.4,29.4z"/>
	<path class="st0" d="M168.8,22.8l-3.1,9.3l-6.7,2.6l-0.5-0.8l-2.4-3.8l2.8-8.1l4.2-1.6l-2.7-4.4l3.4-1.4L168.8,22.8z M165,23.4
		l-1.9-3.1l-3.1,9.1l1.9,3.1L165,23.4z"/>
	<path class="st0" d="M183.1,21.5l4.4-0.8l-9.7,17.1l1.3,3.4l5-8.9l-1.3-3.4l3.6-0.7l1.6,4.2l-4.5,8l-8,1.5l0,0l-1.6-4.2L183.1,21.5
		z"/>
	<path class="st0" d="M194.5,33.4L195,36l-6.4,8.5l0.8,3.4l7.2-9.6l4.5-0.2l-8,10.7l0.5,2.4l-3.4,0.4l-0.8-3.5l-3.6,0.3l-1-4.4
		l6.4-8.5l-0.4-1.9L194.5,33.4z"/>
	<path class="st0" d="M204.6,42.2l4.5,0.2l-1.5,1.6l2.7,2.5l-4.8-0.2l0,0l-6.4,6.9l0.4,3.6l-3.7-0.1l-0.6-4.5L203,44l-2.2-2
		L204.6,42.2z"/>
	<path class="st0" d="M213.5,57.3l4,0.9l3.4,0.7l-0.1,4.9l-3.6-0.8l0.2-4.3l-7.2,5.5l-0.2,3.9l2.5,0.5l-0.1,0.8l-2.5-0.5l-3.6-0.7
		l0.2-5.5L213.5,57.3z"/>
	<path class="st0" d="M228.4,62.1l4.2,1.5l-18.6,11.2l-4.2-1.5L228.4,62.1z M228,69.6l-0.2,4.2l-10.5,6.3l-4.2-1.5l10.9-6.6l0.6-3.6
		L228,69.6z"/>
	<path class="st0" d="M232.7,78.3l-0.7,2.6l-10.3,4.9l-0.6,2.4l-3.8-1.7l0.7-2.6l10-4.9l0.6-2.5L232.7,78.3z M238.9,75.5l-0.9,3.8
		l-3.7-1.6l1-3.8L238.9,75.5z"/>
	<path class="st0" d="M239.3,82.8l4,2.2l-18.6,7.2l-1,3l-3.2-1.7l0.3-0.9l0.8-2.8L239.3,82.8z"/>
	<path class="st0" d="M242.2,90.8l3.8,2.5l-19.1,5.9l-1.2,2.9l-3.1-1.9l0.3-0.9l1-2.8L242.2,90.8z"/>
	<path class="st0" d="M234,108.9c1.1-0.2,2.2,0.5,2.4,1.6c0,0,0,0.1,0,0.1c0.2,1.2-0.5,2.3-1.7,2.6c-1.2,0.2-2.3-0.5-2.6-1.7
		C232,110.3,232.7,109.1,234,108.9C233.9,108.9,234,108.9,234,108.9z"/>
	<path class="st0" d="M243.6,126.5l-2,2.1l2.2,2.9l-2.5,3.2l2.2,2.9l-3,3.3l-11.7-0.4l-2.7-3.6l12.7,0.5l2.4-2.7l-12.2-0.5l-2.7-3.6
		l12.7,0.5l2.4-2.7l-12.2-0.5l-2.7-3.6l12.3,0.5l1.9-2.1L243.6,126.5z"/>
	<path class="st0" d="M237.5,144.9l2.1,3.8l1.8,3.2l-3.3,2.9l-10.4-2.1l-2,1.5l-1.9-2.9l2.9-2.3l-1.8-3.1l3.5-2.8L237.5,144.9z
		 M226.9,149l9.9,2l2.7-2.2l-9.9-2L226.9,149z"/>
	<path class="st0" d="M233.7,168.5l-9.3-3.1l-2.6-6.7l0.8-0.5l3.8-2.4l8.1,2.7l1.7,4.2l4.4-2.7l1.4,3.4L233.7,168.5z M233,164.6
		l3.1-1.9l-9.1-3.1l-3.1,1.9L233,164.6z"/>
	<path class="st0" d="M235,182.7l0.8,4.4l-17.1-9.6l-3.4,1.3l8.9,5l3.4-1.3l0.7,3.6l-4.2,1.6l-8-4.5l-1.5-8l0,0l4.2-1.6L235,182.7z"
		/>
	<path class="st0" d="M223.1,194.1l-2.6,0.6l-8.5-6.4l-3.4,0.8l9.7,7.2l0.3,4.5l-10.8-8l-2.4,0.6l-0.4-3.4l3.6-0.8l-0.3-3.6l4.4-1.1
		l8.5,6.3l1.9-0.4L223.1,194.1z"/>
	<path class="st0" d="M214.4,204.3l-0.2,4.5l-1.6-1.5l-2.5,2.7l0.2-4.8l0,0l-6.9-6.4l-3.6,0.4l0.1-3.7l4.4-0.6l8.3,7.7l2-2.1
		L214.4,204.3z"/>
	<path class="st0" d="M199.3,213.2l-0.9,4l-0.7,3.4l-4.9-0.1l0.8-3.6l4.3,0.1l-5.6-7.2l-3.9-0.1l-0.5,2.5l-0.8-0.1l0.5-2.5l0.7-3.6
		l5.5,0.2L199.3,213.2z"/>
	<path class="st0" d="M187,227.8l-4.2-0.2l-6.4-10.5l1.5-4.2l6.6,10.9l3.6,0.6L187,227.8z M194.5,228.1l-1.5,4.2l-11.3-18.5l1.5-4.2
		L194.5,228.1z"/>
	<path class="st0" d="M178.4,232.5l-2.6-0.7l-4.9-10.2l-2.4-0.6l1.7-3.8l2.6,0.7l4.9,10l2.5,0.6L178.4,232.5z M181.2,238.7l-3.8-0.9
		l1.6-3.8l3.9,1L181.2,238.7z"/>
	<path class="st0" d="M173.9,239.1l-2.2,3.9l-7.3-18.6l-3-1l1.7-3.3l0.9,0.3l2.9,0.8L173.9,239.1z"/>
	<path class="st0" d="M165.9,242.1l-2.4,3.8l-5.9-19.1l-2.9-1.2l1.9-3.1l0.9,0.3l2.8,1L165.9,242.1z"/>
	<path class="st0" d="M147.8,233.9c0.2,1.1-0.5,2.2-1.6,2.5c0,0-0.1,0-0.1,0c-1.2,0.2-2.3-0.5-2.6-1.7c-0.2-1.2,0.5-2.3,1.7-2.6
		C146.3,231.9,147.5,232.6,147.8,233.9C147.7,233.8,147.8,233.9,147.8,233.9z"/>
	<path class="st0" d="M130.2,243.6l-2.1-1.9l-3,2.2l-3.1-2.5l-2.9,2.2l-3.3-3l0.4-11.7l3.6-2.7l-0.4,12.7l2.7,2.4l0.4-12.2l3.5-2.7
		l-0.4,12.7l2.7,2.4l0.4-12.2l3.5-2.7l-0.4,12.3l2.1,1.9L130.2,243.6z"/>
	<path class="st0" d="M111.8,237.6l-3.8,2.1l-3.2,1.8l-2.9-3.3l2-10.4l-1.6-2l2.9-1.9l2.3,2.9l3.1-1.8l2.8,3.5L111.8,237.6z
		 M107.6,227l-1.9,9.9l2.2,2.7l1.9-9.9L107.6,227z"/>
	<path class="st0" d="M88.2,233.8l3.1-9.3l6.7-2.7l0.5,0.8l2.4,3.8l-2.7,8.2l-4.2,1.7l2.7,4.4l-3.4,1.3L88.2,233.8z M92,233.2
		l1.9,3.1l3-9.2L95,224L92,233.2z"/>
	<path class="st0" d="M73.9,235.2l-4.4,0.9l9.6-17.2l-1.3-3.4l-5,8.9l1.3,3.4l-3.6,0.7l-1.6-4.2l4.5-8l8-1.6l0,0L83,219L73.9,235.2z
		"/>
	<path class="st0" d="M62.5,223.4l-0.6-2.6l6.3-8.6l-0.8-3.4l-7.2,9.7l-4.5,0.3l8-10.8l-0.6-2.4l3.4-0.4l0.9,3.6l3.6-0.3l1.1,4.4
		l-6.3,8.6l0.4,1.9L62.5,223.4z"/>
	<path class="st0" d="M52.3,214.6l-4.5-0.2l1.5-1.6l-2.7-2.5l4.8,0.1l0,0l6.4-7l-0.4-3.5l3.7,0.1l0.6,4.4l-7.6,8.4l2.2,2L52.3,214.6
		z"/>
	<path class="st0" d="M43.3,199.6l-4-0.9l-3.4-0.7l0.1-4.9l3.6,0.8l-0.1,4.3l7.2-5.6l0.1-3.9l-2.5-0.5l0.1-0.8l2.5,0.5l3.6,0.7
		l-0.2,5.5L43.3,199.6z"/>
	<path class="st0" d="M28.4,194.9l-4.2-1.4l18.5-11.3l4.2,1.5L28.4,194.9z M28.7,187.4l0.2-4.2l10.4-6.4l4.2,1.5l-10.8,6.7l-0.5,3.6
		L28.7,187.4z"/>
	<path class="st0" d="M17.8,181.6l0.9-3.8l3.7,1.6l-0.9,3.9L17.8,181.6z M23.9,178.7l0.7-2.6l10.2-4.9l0.6-2.4l3.8,1.7l-0.7,2.6
		l-10,4.9l-0.6,2.5L23.9,178.7z"/>
	<path class="st0" d="M17.3,174.3l-4-2.1l18.7-7.4l1-3l3.3,1.7l-0.3,0.9l-0.8,2.9L17.3,174.3z"/>
	<path class="st0" d="M14.3,166.3l-3.8-2.4l19.1-6l1.2-2.9l3.2,1.9l-0.3,0.9l-1,2.8L14.3,166.3z"/>
	<path class="st0" d="M22.4,148.1c-1.1,0.2-2.2-0.5-2.4-1.6c0,0,0-0.1,0-0.1c-0.2-1.1,0.5-2.1,1.6-2.3c0.1,0,0.1,0,0.2,0
		c1.1-0.3,2.2,0.4,2.4,1.4c0,0.1,0,0.2,0,0.3c0.2,1.1-0.5,2.1-1.6,2.3C22.6,148.1,22.5,148.1,22.4,148.1z"/>
	<path class="st0" d="M12.8,130.6l1.9-2.1l-2.2-2.9l2.4-3.2l-2.2-2.9l3-3.4l11.7,0.4l2.7,3.5l-12.7-0.4l-2.4,2.7l12.2,0.4l2.7,3.5
		l-12.7-0.4l-2.4,2.7l12.2,0.4l2.7,3.5l-12.3-0.4l-1.9,2.1L12.8,130.6z"/>
	<path class="st0" d="M18.7,112.2l-2.1-3.8l-1.8-3.2l3.3-2.9l10.4,2l2-1.6l1.9,2.9l-2.8,2.3l1.8,3.1l-3.5,2.8L18.7,112.2z M29.2,108
		l-9.9-1.9l-2.7,2.2l9.9,1.9L29.2,108z"/>
	<path class="st0" d="M22.3,88.6l9.3,3l2.7,6.7l-0.8,0.5l-3.8,2.4l-8.2-2.6l-1.7-4.2l-4.4,2.8l-1.4-3.4L22.3,88.6z M23,92.4
		l-3.1,1.9l9.2,3l3.1-1.9L23,92.4z"/>
	<path class="st0" d="M20.9,74.3L20,69.9l17.2,9.5l3.4-1.3l-8.9-4.9l-3.4,1.3l-0.7-3.6l4.2-1.6l8,4.4l1.6,8l0,0l-4.2,1.6L20.9,74.3z
		"/>
	<path class="st0" d="M32.7,62.8l2.6-0.6l8.6,6.3l3.4-0.8l-9.7-7.1l-0.3-4.5L48.1,64l2.4-0.6l0.5,3.4l-3.5,0.9l0.3,3.6l-4.3,1.1
		l-8.6-6.3L33,66.6L32.7,62.8z"/>
	<path class="st0" d="M41.4,52.6l0.2-4.5l1.6,1.5l2.5-2.7l-0.1,4.8l0,0l7,6.3l3.6-0.5L56,61.2l-4.4,0.6l-8.4-7.6l-2,2.2L41.4,52.6z"
		/>
	<path class="st0" d="M56.5,43.6l0.8-4l0.7-3.4l4.9,0.1l-0.8,3.6l-4.3-0.1l5.6,7.1l3.9,0.1l0.5-2.5l0.8,0.1L68.1,47l-0.7,3.6
		l-5.5-0.1L56.5,43.6z"/>
	<path class="st0" d="M61,28.6l1.4-4.2l11.4,18.4L72.4,47L61,28.6z M68.6,28.9l4.2,0.2l6.4,10.4l-1.4,4.2L71,32.9l-3.6-0.5
		L68.6,28.9z"/>
	<path class="st0" d="M74.3,18l3.8,0.9l-1.6,3.7l-3.9-0.9L74.3,18z M77.2,24.1l2.6,0.7l5,10.2l2.4,0.6l-1.7,3.8l-2.6-0.7l-5-10
		l-2.5-0.6L77.2,24.1z"/>
	<path class="st0" d="M81.6,17.5l2.1-4l7.4,18.6l3,1l-1.7,3.3l-0.9-0.3l-2.9-0.8L81.6,17.5z"/>
	<path class="st0" d="M89.6,14.5l2.4-3.8l6.1,19.1l2.9,1.2l-1.9,3.1l-0.9-0.3l-2.8-1L89.6,14.5z"/>
	<path class="st0" d="M107.8,22.5c-0.3-1.1,0.4-2.2,1.6-2.5c0,0,0.1,0,0.1,0c1.1-0.2,2.1,0.5,2.3,1.6c0,0.1,0,0.1,0,0.2
		c0.3,1.1-0.4,2.2-1.4,2.4c-0.1,0-0.2,0-0.2,0c-1.1,0.2-2.1-0.5-2.3-1.6C107.8,22.7,107.8,22.6,107.8,22.5z"/>
</g>
</svg>
