<svg xmlns="http://www.w3.org/2000/svg" viewBox="0 0 256.29 256.3"><defs><style>.cls-1,.cls-2{font-size:34.5px;fill:none;stroke:#e5e5e5;stroke-miterlimit:10;stroke-width:0.75px;}.cls-1{font-family:Bajern-Regular, Bajern;}.cls-2{font-family:MyriadPro-Regular, Myriad Pro;}</style></defs><title>Portfolio_v4</title><g id="Capa_1" data-name="Capa 1"><text class="cls-1" transform="matrix(1, 0.04, -0.04, 1, 122.38, 29.37)">M</text><text class="cls-1" transform="translate(141.37 30.35) rotate(11.52)">A</text><text class="cls-1" transform="translate(153.74 32.84) rotate(18.7)">D</text><text class="cls-1" transform="translate(165.17 36.83) rotate(24.11)"> </text><text class="cls-1" transform="translate(171.02 39.26) rotate(29.57)">B</text><text class="cls-1" transform="translate(181.72 45.27) rotate(36.83)">U</text><text class="cls-1" transform="translate(191.44 52.58) rotate(42.83)">T</text><text class="cls-1" transform="translate(198.31 59) rotate(47.41)"> </text><text class="cls-1" transform="matrix(0.61, 0.79, -0.79, 0.61, 202.75, 63.65)">C</text><text class="cls-1" transform="matrix(0.52, 0.86, -0.86, 0.52, 209.1, 71.74)">H</text><text class="cls-1" transform="translate(215.43 82.39) rotate(64.63)">I</text><text class="cls-1" transform="translate(218.57 88.96) rotate(68.81)">L</text><text class="cls-1" transform="matrix(0.29, 0.96, -0.96, 0.29, 221.13, 95.49)">L</text><text class="cls-1" transform="translate(223.29 102.52) rotate(76.98)"> </text><text class="cls-2" transform="translate(224.77 108.83) rotate(80.84)">路</text><text class="cls-2" transform="translate(225.86 115.49) rotate(84.81)"> </text><text class="cls-1" transform="matrix(-0.04, 1, -1, -0.04, 226.91, 122.05)">M</text><text class="cls-1" transform="translate(225.99 141.03) rotate(101.32)">A</text><text class="cls-1" transform="translate(223.54 153.42) rotate(108.5)">D</text><text class="cls-1" transform="matrix(-0.41, 0.91, -0.91, -0.41, 219.6, 164.85)"> </text><text class="cls-1" transform="translate(217.18 170.73) rotate(119.38)">B</text><text class="cls-1" transform="matrix(-0.6, 0.8, -0.8, -0.6, 211.21, 181.45)">U</text><text class="cls-1" transform="translate(203.94 191.18) rotate(132.63)">T</text><text class="cls-1" transform="translate(197.53 198.09) rotate(137.22)"> </text><text class="cls-1" transform="translate(192.92 202.51) rotate(142.18)">C</text><text class="cls-1" transform="translate(184.83 208.92) rotate(148.65)">H</text><text class="cls-1" transform="translate(174.22 215.28) rotate(154.43)">I</text><text class="cls-1" transform="translate(167.65 218.44) rotate(158.61)">L</text><text class="cls-1" transform="translate(161.12 221.03) rotate(162.72)">L</text><text class="cls-1" transform="translate(154.11 223.21) rotate(166.78)"> </text><text class="cls-2" transform="matrix(-0.99, 0.16, -0.16, -0.99, 147.78, 224.71)">路</text><text class="cls-2" transform="translate(141.13 225.82) rotate(174.62)"> </text><text class="cls-1" transform="translate(134.6 226.89) rotate(-178)">M</text><text class="cls-1" transform="matrix(-0.98, -0.19, 0.19, -0.98, 115.6, 226.04)">A</text><text class="cls-1" transform="translate(103.2 223.63) rotate(-161.7)">D</text><text class="cls-1" transform="translate(91.77 219.74) rotate(-156.31)"> </text><text class="cls-1" transform="translate(85.86 217.33) rotate(-150.82)">B</text><text class="cls-1" transform="matrix(-0.8, -0.59, 0.59, -0.8, 75.15, 211.42)">U</text><text class="cls-1" transform="matrix(-0.74, -0.67, 0.67, -0.74, 65.36, 204.16)">T</text><text class="cls-1" transform="translate(58.45 197.78) rotate(-132.98)"> </text><text class="cls-1" transform="matrix(-0.62, -0.79, 0.79, -0.62, 54, 193.18)">C</text><text class="cls-1" transform="translate(47.58 185.13) rotate(-121.55)">H</text><text class="cls-1" transform="matrix(-0.43, -0.9, 0.9, -0.43, 41.17, 174.52)">I</text><text class="cls-1" transform="translate(37.98 167.97) rotate(-111.59)">L</text><text class="cls-1" transform="translate(35.38 161.47) rotate(-107.49)">L</text><text class="cls-1" transform="translate(33.17 154.45) rotate(-103.42)"> </text><text class="cls-2" transform="translate(31.64 148.11) rotate(-99.54)">路</text><text class="cls-2" transform="matrix(-0.1, -1, 1, -0.1, 30.51, 141.47)"> </text><text class="cls-1" transform="translate(29.42 134.94) rotate(-88.2)">M</text><text class="cls-1" transform="translate(30.2 115.95) rotate(-79.09)">A</text><text class="cls-1" transform="translate(32.57 103.54) rotate(-71.9)">D</text><text class="cls-1" transform="translate(36.43 92.1) rotate(-66.5)"> </text><text class="cls-1" transform="translate(38.82 86.18) rotate(-61.01)">B</text><text class="cls-1" transform="translate(44.7 75.44) rotate(-53.77)">U</text><text class="cls-1" transform="translate(51.92 65.63) rotate(-47.75)">T</text><text class="cls-1" transform="matrix(0.73, -0.68, 0.68, 0.73, 58.26, 58.71)"> </text><text class="cls-1" transform="matrix(0.79, -0.62, 0.62, 0.79, 62.86, 54.23)">C</text><text class="cls-1" transform="translate(70.88 47.79) rotate(-31.76)">H</text><text class="cls-1" transform="matrix(0.9, -0.44, 0.44, 0.9, 81.47, 41.34)">I</text><text class="cls-1" transform="translate(88.02 38.13) rotate(-21.78)">L</text><text class="cls-1" transform="translate(94.5 35.51) rotate(-17.69)">L</text><text class="cls-1" transform="translate(101.51 33.27) rotate(-13.62)"> </text><text class="cls-2" transform="translate(107.84 31.72) rotate(-9.75)">路</text><text class="cls-2" transform="translate(114.48 30.57) rotate(-5.78)"> </text></g></svg>